<svg width="24" height="24" viewBox="0 0 24 24" fill="none" xmlns="http://www.w3.org/2000/svg">
<mask id="mask0_2369_2541" style="mask-type:luminance" maskUnits="userSpaceOnUse" x="2" y="5" width="20" height="15">
<path d="M2.76255 10.6811C2.89958 10.7664 3.0384 10.8482 3.17901 10.9246C3.40503 11.0472 3.53673 11.2854 3.50648 11.5164L3.50114 11.5626C3.47978 11.7243 3.38901 11.8434 3.2413 11.902C3.09358 11.9625 2.93162 11.9465 2.77322 11.8594C2.61127 11.7688 2.45109 11.671 2.29269 11.5715C2.08802 11.44 1.9759 11.2196 2.00438 11.0028L2.00972 10.9637C2.03107 10.7984 2.12718 10.6758 2.28202 10.6189C2.43685 10.5621 2.60593 10.5834 2.76255 10.6829M5.00146 9.48332C5.14027 9.56684 5.27909 9.64505 5.42149 9.71967C5.64929 9.83876 5.78453 10.0751 5.75961 10.3062L5.75427 10.3524C5.73649 10.5141 5.64929 10.6349 5.50334 10.6989C5.35742 10.7629 5.19544 10.7505 5.03705 10.6651C4.87332 10.5763 4.71314 10.4839 4.55296 10.3844C4.34651 10.2564 4.23083 10.036 4.25397 9.81922L4.25753 9.77834C4.27532 9.61127 4.36965 9.48866 4.52093 9.42645C4.67399 9.36603 4.84306 9.38557 5.00146 9.48156V9.48332ZM4.0582 6.42304C4.19524 6.51012 4.33227 6.59365 4.47288 6.67184C4.69712 6.79802 4.82704 7.03616 4.79323 7.26719L4.78611 7.3134C4.76297 7.47334 4.67043 7.59064 4.52271 7.64929C4.37499 7.70793 4.21125 7.69016 4.05464 7.59952C3.89268 7.50711 3.73428 7.40937 3.57766 7.30629C3.37478 7.173 3.26443 6.95086 3.29647 6.73582L3.30181 6.69672C3.32494 6.53144 3.42283 6.41059 3.57766 6.3555C3.7325 6.30041 3.90158 6.32351 4.0582 6.42481V6.42304ZM7.50912 9.55974C6.86841 9.35003 6.25261 9.04437 5.67955 8.65339C5.44282 8.49166 5.32716 8.21619 5.39299 7.97274L5.40012 7.94785C5.4464 7.7808 5.56031 7.66706 5.72939 7.62085C5.89843 7.57464 6.07644 7.61019 6.23838 7.72037C6.69933 8.03671 7.19764 8.28375 7.71556 8.45258C7.88106 8.50587 8.01099 8.61072 8.10176 8.76179C8.19254 8.91287 8.21746 9.06746 8.17652 9.21854L8.16938 9.24342C8.09463 9.51886 7.80634 9.6557 7.50733 9.55798L7.50912 9.55974ZM7.13716 6.98818C7.09622 6.9704 7.05348 6.95263 7.01257 6.93486C6.71536 6.80513 6.42703 6.65584 6.1476 6.49235C5.90022 6.34662 5.76496 6.07827 5.81124 5.82591L5.81658 5.79925C5.8486 5.62686 5.95185 5.50424 6.11559 5.44381C6.27932 5.38517 6.4555 5.40649 6.62458 5.50602C6.85594 5.64286 7.09622 5.76548 7.34181 5.87389C7.38275 5.89166 7.42545 5.90943 7.46639 5.9272C7.85438 6.11203 8.26905 6.25065 8.70333 6.33418C10.0719 6.59897 10.9315 6.19911 11.8214 5.78681C12.9302 5.27321 14.0764 4.74183 16.1302 5.13814C17.4472 5.39228 18.6663 5.99296 19.6897 6.8229C20.5422 7.516 21.2576 8.36548 21.7773 9.30739C22.0104 9.73212 22.062 10.1587 21.925 10.5674L19.1433 18.8703C19.1041 18.9859 19.0009 19.0516 18.8727 19.0427C18.7428 19.0356 18.6254 18.9556 18.5631 18.8348C18.1715 18.0759 17.6821 17.3917 17.1144 16.8177C17.1001 16.8035 17.0859 16.7893 17.0717 16.7751C16.9079 16.5991 16.7335 16.4321 16.5484 16.2774C15.8721 15.7123 15.0552 15.3018 14.1653 15.1294C14.1244 15.1205 14.0817 15.1134 14.0408 15.1063H14.039C12.7576 14.8913 11.9211 15.2769 11.0579 15.675C9.94202 16.1886 8.78873 16.72 6.73848 16.3254C5.86462 16.1566 5.03349 15.8349 4.27354 15.3942C3.99056 15.2307 3.71648 15.0494 3.45486 14.8539C3.2235 14.6816 3.12205 14.4025 3.20214 14.1644L3.21104 14.1395C3.26621 13.976 3.38723 13.8694 3.55987 13.8321C3.7325 13.7947 3.9087 13.8392 4.06709 13.9565C4.28422 14.1182 4.51025 14.2692 4.74517 14.4043C5.36986 14.7669 6.05862 15.0316 6.78653 15.172C8.47373 15.4973 9.46504 15.0405 10.4243 14.5998C11.4761 14.1146 12.496 13.6455 14.2134 13.976C15.3364 14.1928 16.3704 14.7135 17.2301 15.4315C17.7213 15.842 18.1537 16.3183 18.5132 16.839L20.8411 9.89384C20.4051 9.04792 19.7822 8.28375 19.0294 7.67416C18.1876 6.99173 17.1802 6.4959 16.0857 6.28442C14.3967 5.95742 13.4125 6.41415 12.4586 6.85667C11.4085 7.34361 10.3923 7.81456 8.65883 7.48045C8.13202 7.37916 7.62303 7.20855 7.13892 6.98107L7.13716 6.98818ZM17.3066 17.9284L16.9631 18.993C16.9239 19.1138 16.8225 19.192 16.6944 19.1991C16.5662 19.2062 16.4505 19.1387 16.39 19.025C16.0091 18.2999 15.5286 17.6637 14.9715 17.1483C14.9573 17.1358 14.9431 17.1216 14.9288 17.1092C14.7687 16.9492 14.5978 16.8 14.4145 16.6649C13.7489 16.169 12.9444 15.8456 12.0652 15.7727C12.0243 15.7692 11.9834 15.7656 11.9424 15.7639H11.9407C11.7449 15.7532 11.558 15.755 11.3818 15.7692C12.083 15.4617 12.8145 15.2236 13.8539 15.3977H13.8556C13.8948 15.4049 13.934 15.412 13.9749 15.4191C14.8256 15.5844 15.6087 15.9771 16.2547 16.5174C16.4327 16.6649 16.6 16.8248 16.7549 16.9937C16.7691 17.0079 16.7833 17.0221 16.7958 17.0345C16.9364 17.1767 17.0717 17.3242 17.2016 17.4806C17.3155 17.6174 17.3546 17.7809 17.3066 17.9284ZM6.03904 13.8143C5.4108 13.6081 4.81102 13.306 4.26109 12.9186C4.03328 12.7587 3.93183 12.4832 4.01014 12.2379L4.01904 12.2131C4.07243 12.0442 4.19345 11.9305 4.36431 11.8825C4.53517 11.8345 4.71136 11.8683 4.8662 11.9803C5.31114 12.293 5.79345 12.5383 6.30245 12.7053C6.46439 12.7587 6.58898 12.8617 6.67262 13.0128C6.75627 13.1638 6.77229 13.3185 6.72425 13.4713L6.71712 13.4962C6.62813 13.7734 6.33447 13.912 6.04083 13.8161L6.03904 13.8143Z" fill="white"/>
</mask>
<g mask="url(#mask0_2369_2541)">
<path d="M20.0605 6.74362V17.2065H3.97656V6.74362H20.0605Z" fill="black" stroke="black" stroke-width="4"/>
</g>
</svg>
