<svg width="400" height="88" viewBox="0 0 400 88" fill="none" xmlns="http://www.w3.org/2000/svg">
<path d="M0 24C0 10.7452 10.7452 0 24 0H376C389.255 0 400 10.7452 400 24V64C400 77.2548 389.255 88 376 88H24C10.7452 88 0 77.2548 0 64V24Z" fill="#F5F5F1"/>
<path d="M8 24C8 15.1634 15.1634 8 24 8H85C93.8366 8 101 15.1634 101 24V64C101 72.8366 93.8366 80 85 80H24C15.1634 80 8 72.8366 8 64V24Z" fill="#BDE8FF"/>
<path d="M46.5 33L54.5 26L62.5 33" stroke="#07315F" stroke-width="1.8" stroke-linecap="round" stroke-linejoin="round"/>
<path d="M48.5 32V41C48.5 41.2652 48.6054 41.5196 48.7929 41.7071C48.9804 41.8946 49.2348 42 49.5 42H59.5C59.7652 42 60.0196 41.8946 60.2071 41.7071C60.3946 41.5196 60.5 41.2652 60.5 41V32" stroke="#07315F" stroke-width="1.8" stroke-linecap="round" stroke-linejoin="round"/>
<path d="M52.5 42V37H56.5V42" stroke="#07315F" stroke-width="1.8" stroke-linecap="round" stroke-linejoin="round"/>
<path d="M39.448 64V55.636H40.504V59.224H44.632V55.636H45.688V64H44.632V60.208H40.504V64H39.448ZM50.1008 64.096C49.5488 64.096 49.0528 63.968 48.6128 63.712C48.1808 63.448 47.8408 63.084 47.5928 62.62C47.3448 62.156 47.2208 61.628 47.2208 61.036C47.2208 60.444 47.3408 59.92 47.5808 59.464C47.8288 59 48.1688 58.64 48.6008 58.384C49.0408 58.12 49.5408 57.988 50.1008 57.988C50.6608 57.988 51.1528 58.12 51.5768 58.384C52.0088 58.64 52.3488 59 52.5968 59.464C52.8448 59.92 52.9688 60.444 52.9688 61.036C52.9688 61.628 52.8448 62.156 52.5968 62.62C52.3488 63.076 52.0088 63.436 51.5768 63.7C51.1448 63.964 50.6528 64.096 50.1008 64.096ZM50.1008 63.196C50.4768 63.196 50.8008 63.108 51.0728 62.932C51.3528 62.748 51.5688 62.496 51.7208 62.176C51.8728 61.848 51.9488 61.468 51.9488 61.036C51.9488 60.596 51.8728 60.216 51.7208 59.896C51.5688 59.568 51.3528 59.316 51.0728 59.14C50.8008 58.964 50.4768 58.876 50.1008 58.876C49.7168 58.876 49.3848 58.968 49.1048 59.152C48.8248 59.328 48.6088 59.576 48.4568 59.896C48.3048 60.216 48.2288 60.596 48.2288 61.036C48.2288 61.468 48.3048 61.848 48.4568 62.176C48.6088 62.496 48.8248 62.748 49.1048 62.932C49.3848 63.108 49.7168 63.196 50.1008 63.196ZM54.4226 64V58.084H55.4426V59.608H55.2386C55.3106 59.328 55.4066 59.088 55.5266 58.888C55.6546 58.68 55.8026 58.512 55.9706 58.384C56.1386 58.248 56.3186 58.148 56.5106 58.084C56.7106 58.02 56.9186 57.988 57.1346 57.988C57.4946 57.988 57.8106 58.056 58.0826 58.192C58.3546 58.328 58.5786 58.536 58.7546 58.816C58.9306 59.088 59.0506 59.436 59.1146 59.86L58.5386 59.896C58.6586 59.488 58.8106 59.144 58.9946 58.864C59.1786 58.576 59.4066 58.36 59.6786 58.216C59.9586 58.064 60.2906 57.988 60.6746 57.988C61.1626 57.988 61.5546 58.1 61.8506 58.324C62.1466 58.54 62.3626 58.832 62.4986 59.2C62.6346 59.56 62.7026 59.96 62.7026 60.4V64H61.6946V60.64C61.6946 60.272 61.6506 59.956 61.5626 59.692C61.4826 59.428 61.3506 59.224 61.1666 59.08C60.9906 58.936 60.7506 58.864 60.4466 58.864C60.1586 58.864 59.9106 58.936 59.7026 59.08C59.5026 59.224 59.3466 59.444 59.2346 59.74C59.1306 60.028 59.0786 60.388 59.0786 60.82V64H58.0586V60.556C58.0586 59.988 57.9546 59.564 57.7466 59.284C57.5386 59.004 57.2346 58.864 56.8346 58.864C56.5466 58.864 56.2986 58.94 56.0906 59.092C55.8826 59.236 55.7226 59.452 55.6106 59.74C55.4986 60.028 55.4426 60.388 55.4426 60.82V64H54.4226ZM66.8561 64.096C66.3921 64.096 65.9841 64.02 65.6321 63.868C65.2881 63.708 65.0001 63.488 64.7681 63.208C64.5441 62.928 64.3721 62.608 64.2521 62.248C64.1401 61.88 64.0841 61.492 64.0841 61.084C64.0841 60.676 64.1401 60.288 64.2521 59.92C64.3641 59.544 64.5281 59.212 64.7441 58.924C64.9681 58.636 65.2481 58.408 65.5841 58.24C65.9201 58.072 66.3121 57.988 66.7601 57.988C67.2161 57.988 67.6081 58.068 67.9361 58.228C68.2721 58.38 68.5441 58.592 68.7521 58.864C68.9681 59.136 69.1281 59.44 69.2321 59.776C69.3361 60.112 69.3881 60.46 69.3881 60.82C69.3881 60.852 69.3841 60.928 69.3761 61.048C69.3761 61.16 69.3681 61.26 69.3521 61.348H65.0921C65.1161 61.924 65.2841 62.372 65.5961 62.692C65.9081 63.012 66.3321 63.172 66.8681 63.172C67.2121 63.172 67.5121 63.116 67.7681 63.004C68.0241 62.892 68.2641 62.712 68.4881 62.464L69.1961 63.088C68.9801 63.32 68.7521 63.512 68.5121 63.664C68.2721 63.808 68.0161 63.916 67.7441 63.988C67.4801 64.06 67.1841 64.096 66.8561 64.096ZM68.3801 60.832C68.3961 60.768 68.4041 60.704 68.4041 60.64C68.4121 60.576 68.4161 60.512 68.4161 60.448C68.4161 60.256 68.3801 60.064 68.3081 59.872C68.2441 59.68 68.1441 59.508 68.0081 59.356C67.8801 59.196 67.7121 59.072 67.5041 58.984C67.3041 58.888 67.0641 58.84 66.7841 58.84C66.4401 58.84 66.1441 58.92 65.8961 59.08C65.6481 59.24 65.4561 59.452 65.3201 59.716C65.1841 59.98 65.1041 60.272 65.0801 60.592H68.7161L68.3801 60.832Z" fill="#07315F"/>
<path d="M143.5 29.5C143.5 28.837 143.763 28.2011 144.232 27.7322C144.701 27.2634 145.337 27 146 27H156.5C156.765 27 157.02 27.1054 157.207 27.2929C157.395 27.4804 157.5 27.7348 157.5 28V29.5" stroke="#52657B" stroke-width="1.8" stroke-linecap="round" stroke-linejoin="round"/>
<path d="M157 29.5H146C144.619 29.5 143.5 30.6193 143.5 32V39C143.5 40.3807 144.619 41.5 146 41.5H157C158.381 41.5 159.5 40.3807 159.5 39V32C159.5 30.6193 158.381 29.5 157 29.5Z" stroke="#52657B" stroke-width="1.8" stroke-linecap="round" stroke-linejoin="round"/>
<path d="M155.5 35H157.5" stroke="#52657B" stroke-width="1.8" stroke-linecap="round" stroke-linejoin="round"/>
<path d="M159.5 33.5H156.5C156.102 33.5 155.721 33.658 155.439 33.9393C155.158 34.2206 155 34.6022 155 35C155 35.3978 155.158 35.7794 155.439 36.0607C155.721 36.342 156.102 36.5 156.5 36.5H159.5" stroke="#07315F" stroke-width="1.8" stroke-linecap="round" stroke-linejoin="round"/>
<path d="M126.704 64L129.896 55.636H130.736L133.928 64H132.776L130.328 57.148L127.868 64H126.704ZM128.48 62.032L128.804 61.084H131.828L132.176 62.032H128.48ZM137.465 64.096C137.025 64.096 136.633 64.016 136.289 63.856C135.953 63.696 135.669 63.476 135.437 63.196C135.205 62.908 135.029 62.58 134.909 62.212C134.789 61.844 134.729 61.452 134.729 61.036C134.729 60.628 134.789 60.24 134.909 59.872C135.029 59.504 135.205 59.18 135.437 58.9C135.669 58.612 135.953 58.388 136.289 58.228C136.633 58.068 137.025 57.988 137.465 57.988C138.025 57.988 138.513 58.124 138.929 58.396C139.353 58.668 139.665 59.084 139.865 59.644L138.965 59.992C138.853 59.656 138.673 59.384 138.425 59.176C138.177 58.968 137.857 58.864 137.465 58.864C137.073 58.864 136.749 58.968 136.493 59.176C136.237 59.384 136.045 59.652 135.917 59.98C135.797 60.308 135.737 60.66 135.737 61.036C135.737 61.412 135.797 61.768 135.917 62.104C136.045 62.432 136.237 62.7 136.493 62.908C136.749 63.108 137.073 63.208 137.465 63.208C137.857 63.208 138.177 63.108 138.425 62.908C138.673 62.7 138.853 62.424 138.965 62.08L139.865 62.428C139.665 62.988 139.353 63.408 138.929 63.688C138.513 63.96 138.025 64.096 137.465 64.096ZM143.676 64.096C143.236 64.096 142.844 64.016 142.5 63.856C142.164 63.696 141.88 63.476 141.648 63.196C141.416 62.908 141.24 62.58 141.12 62.212C141 61.844 140.94 61.452 140.94 61.036C140.94 60.628 141 60.24 141.12 59.872C141.24 59.504 141.416 59.18 141.648 58.9C141.88 58.612 142.164 58.388 142.5 58.228C142.844 58.068 143.236 57.988 143.676 57.988C144.236 57.988 144.724 58.124 145.14 58.396C145.564 58.668 145.876 59.084 146.076 59.644L145.176 59.992C145.064 59.656 144.884 59.384 144.636 59.176C144.388 58.968 144.068 58.864 143.676 58.864C143.284 58.864 142.96 58.968 142.704 59.176C142.448 59.384 142.256 59.652 142.128 59.98C142.008 60.308 141.948 60.66 141.948 61.036C141.948 61.412 142.008 61.768 142.128 62.104C142.256 62.432 142.448 62.7 142.704 62.908C142.96 63.108 143.284 63.208 143.676 63.208C144.068 63.208 144.388 63.108 144.636 62.908C144.884 62.7 145.064 62.424 145.176 62.08L146.076 62.428C145.876 62.988 145.564 63.408 145.14 63.688C144.724 63.96 144.236 64.096 143.676 64.096ZM150.031 64.096C149.479 64.096 148.983 63.968 148.543 63.712C148.111 63.448 147.771 63.084 147.523 62.62C147.275 62.156 147.151 61.628 147.151 61.036C147.151 60.444 147.271 59.92 147.511 59.464C147.759 59 148.099 58.64 148.531 58.384C148.971 58.12 149.471 57.988 150.031 57.988C150.591 57.988 151.083 58.12 151.507 58.384C151.939 58.64 152.279 59 152.527 59.464C152.775 59.92 152.898 60.444 152.898 61.036C152.898 61.628 152.775 62.156 152.527 62.62C152.279 63.076 151.939 63.436 151.507 63.7C151.075 63.964 150.583 64.096 150.031 64.096ZM150.031 63.196C150.407 63.196 150.731 63.108 151.003 62.932C151.283 62.748 151.499 62.496 151.651 62.176C151.803 61.848 151.879 61.468 151.879 61.036C151.879 60.596 151.803 60.216 151.651 59.896C151.499 59.568 151.283 59.316 151.003 59.14C150.731 58.964 150.407 58.876 150.031 58.876C149.647 58.876 149.315 58.968 149.035 59.152C148.755 59.328 148.539 59.576 148.387 59.896C148.235 60.216 148.159 60.596 148.159 61.036C148.159 61.468 148.235 61.848 148.387 62.176C148.539 62.496 148.755 62.748 149.035 62.932C149.315 63.108 149.647 63.196 150.031 63.196ZM156.344 64.096C155.92 64.096 155.552 64.012 155.24 63.844C154.928 63.668 154.688 63.412 154.52 63.076C154.36 62.74 154.28 62.324 154.28 61.828V58.084H155.288V61.468C155.288 61.86 155.336 62.188 155.432 62.452C155.536 62.708 155.688 62.9 155.888 63.028C156.088 63.148 156.336 63.208 156.632 63.208C156.96 63.208 157.236 63.132 157.46 62.98C157.692 62.82 157.868 62.58 157.988 62.26C158.108 61.94 158.168 61.528 158.168 61.024V58.084H159.176V64H158.168V62.74H158.42C158.252 63.18 157.984 63.516 157.616 63.748C157.248 63.98 156.824 64.096 156.344 64.096ZM160.915 64V58.084H161.935V59.344L161.695 59.428C161.807 59.124 161.959 58.868 162.151 58.66C162.343 58.444 162.575 58.28 162.847 58.168C163.119 58.048 163.419 57.988 163.747 57.988C164.395 57.988 164.903 58.18 165.271 58.564C165.639 58.94 165.823 59.5 165.823 60.244V64H164.803V60.616C164.803 60.016 164.691 59.576 164.467 59.296C164.251 59.008 163.919 58.864 163.471 58.864C163.143 58.864 162.863 58.94 162.631 59.092C162.407 59.244 162.235 59.484 162.115 59.812C161.995 60.132 161.935 60.544 161.935 61.048V64H160.915ZM169.445 64.096C169.165 64.096 168.909 64.044 168.677 63.94C168.453 63.828 168.277 63.652 168.149 63.412C168.021 63.172 167.957 62.864 167.957 62.488V56.5L168.989 55.924V62.224C168.989 62.552 169.041 62.808 169.145 62.992C169.249 63.168 169.437 63.256 169.709 63.256C169.789 63.256 169.885 63.248 169.997 63.232C170.109 63.208 170.229 63.18 170.357 63.148V63.94C170.205 63.996 170.049 64.036 169.889 64.06C169.737 64.084 169.589 64.096 169.445 64.096ZM166.733 58.876V58.084H170.357V58.876H166.733ZM173.582 64.096C173.182 64.096 172.822 64.036 172.502 63.916C172.182 63.796 171.906 63.636 171.674 63.436C171.45 63.236 171.27 63.024 171.134 62.8L171.842 62.2C171.994 62.504 172.218 62.756 172.514 62.956C172.818 63.148 173.178 63.244 173.594 63.244C173.97 63.244 174.27 63.164 174.494 63.004C174.718 62.844 174.83 62.628 174.83 62.356C174.83 62.132 174.762 61.956 174.626 61.828C174.49 61.7 174.31 61.596 174.086 61.516C173.862 61.436 173.618 61.364 173.354 61.3C173.13 61.244 172.902 61.176 172.67 61.096C172.446 61.016 172.242 60.916 172.058 60.796C171.874 60.676 171.726 60.52 171.614 60.328C171.502 60.136 171.446 59.9 171.446 59.62C171.446 59.132 171.634 58.74 172.01 58.444C172.394 58.14 172.894 57.988 173.51 57.988C173.958 57.988 174.366 58.084 174.734 58.276C175.11 58.46 175.402 58.74 175.61 59.116L174.962 59.596C174.802 59.316 174.59 59.116 174.326 58.996C174.07 58.868 173.786 58.804 173.474 58.804C173.162 58.804 172.902 58.868 172.694 58.996C172.486 59.124 172.382 59.3 172.382 59.524C172.382 59.692 172.43 59.828 172.526 59.932C172.622 60.036 172.762 60.124 172.946 60.196C173.138 60.268 173.37 60.336 173.642 60.4C173.89 60.456 174.142 60.524 174.398 60.604C174.654 60.684 174.89 60.788 175.106 60.916C175.322 61.044 175.494 61.216 175.622 61.432C175.758 61.64 175.826 61.912 175.826 62.248C175.826 62.616 175.734 62.94 175.55 63.22C175.366 63.5 175.106 63.716 174.77 63.868C174.434 64.02 174.038 64.096 173.582 64.096Z" fill="#52657B"/>
<path d="M255 27H242C240.619 27 239.5 28.1193 239.5 29.5V38.5C239.5 39.8807 240.619 41 242 41H255C256.381 41 257.5 39.8807 257.5 38.5V29.5C257.5 28.1193 256.381 27 255 27Z" stroke="#52657B" stroke-width="1.8" stroke-linecap="round" stroke-linejoin="round"/>
<path d="M239.5 31.5H257.5" stroke="#52657B" stroke-width="1.8" stroke-linecap="round" stroke-linejoin="round"/>
<path d="M243 36.5H247" stroke="#52657B" stroke-width="1.8" stroke-linecap="round" stroke-linejoin="round"/>
<path d="M236.464 64.144C235.696 64.144 235.02 63.964 234.436 63.604C233.86 63.244 233.408 62.74 233.08 62.092C232.76 61.436 232.6 60.676 232.6 59.812C232.6 58.948 232.76 58.192 233.08 57.544C233.408 56.896 233.86 56.392 234.436 56.032C235.02 55.672 235.696 55.492 236.464 55.492C237.304 55.492 238.032 55.7 238.648 56.116C239.264 56.532 239.708 57.108 239.98 57.844L238.996 58.216C238.788 57.672 238.468 57.252 238.036 56.956C237.604 56.652 237.08 56.5 236.464 56.5C235.896 56.5 235.4 56.636 234.976 56.908C234.552 57.18 234.224 57.564 233.992 58.06C233.768 58.548 233.656 59.132 233.656 59.812C233.656 60.492 233.768 61.08 233.992 61.576C234.224 62.072 234.552 62.456 234.976 62.728C235.4 63 235.896 63.136 236.464 63.136C237.08 63.136 237.604 62.984 238.036 62.68C238.468 62.376 238.788 61.956 238.996 61.42L239.98 61.78C239.708 62.508 239.264 63.084 238.648 63.508C238.032 63.932 237.304 64.144 236.464 64.144ZM245.201 64L245.129 62.812V60.292C245.129 59.836 245.001 59.484 244.745 59.236C244.497 58.988 244.125 58.864 243.629 58.864C243.309 58.864 243.009 58.932 242.729 59.068C242.449 59.196 242.177 59.416 241.913 59.728L241.181 59.104C241.509 58.72 241.885 58.44 242.309 58.264C242.733 58.08 243.197 57.988 243.701 57.988C244.477 57.988 245.077 58.188 245.501 58.588C245.925 58.988 246.137 59.556 246.137 60.292V64H245.201ZM243.245 64.096C242.797 64.096 242.405 64.02 242.069 63.868C241.741 63.708 241.485 63.488 241.301 63.208C241.125 62.928 241.037 62.604 241.037 62.236C241.037 61.908 241.101 61.632 241.229 61.408C241.365 61.176 241.537 60.996 241.745 60.868C241.953 60.732 242.189 60.64 242.453 60.592C242.725 60.536 243.009 60.508 243.305 60.508H245.225V61.276H243.449C243.273 61.276 243.089 61.292 242.897 61.324C242.705 61.356 242.537 61.424 242.393 61.528C242.289 61.608 242.205 61.708 242.141 61.828C242.085 61.948 242.057 62.088 242.057 62.248C242.057 62.56 242.173 62.808 242.405 62.992C242.637 63.176 242.949 63.268 243.341 63.268C243.669 63.268 243.965 63.192 244.229 63.04C244.501 62.888 244.717 62.68 244.877 62.416C245.045 62.144 245.129 61.84 245.129 61.504L245.549 61.936C245.501 62.36 245.373 62.736 245.165 63.064C244.957 63.392 244.689 63.648 244.361 63.832C244.041 64.008 243.669 64.096 243.245 64.096ZM247.794 64V58.084H248.814V59.668L248.55 59.728C248.606 59.376 248.738 59.072 248.946 58.816C249.162 58.552 249.41 58.348 249.69 58.204C249.978 58.06 250.258 57.988 250.53 57.988C250.714 57.988 250.89 58.008 251.058 58.048C251.226 58.088 251.398 58.156 251.574 58.252L251.07 59.164C250.974 59.116 250.858 59.076 250.722 59.044C250.594 59.012 250.47 58.996 250.35 58.996C250.158 58.996 249.966 59.032 249.774 59.104C249.59 59.176 249.422 59.288 249.27 59.44C249.118 59.592 249.002 59.796 248.922 60.052C248.89 60.164 248.862 60.312 248.838 60.496C248.822 60.672 248.814 60.916 248.814 61.228V64H247.794ZM254.753 64.096C254.217 64.096 253.745 63.964 253.337 63.7C252.937 63.428 252.625 63.06 252.401 62.596C252.177 62.132 252.065 61.612 252.065 61.036C252.065 60.412 252.185 59.872 252.425 59.416C252.665 58.96 252.989 58.608 253.397 58.36C253.805 58.112 254.257 57.988 254.753 57.988C255.129 57.988 255.465 58.064 255.761 58.216C256.057 58.36 256.305 58.56 256.505 58.816C256.713 59.064 256.857 59.344 256.937 59.656L256.649 59.848V55.636H257.657V64H256.649V62.236L256.985 62.344C256.881 62.688 256.725 62.992 256.517 63.256C256.309 63.52 256.057 63.728 255.761 63.88C255.465 64.024 255.129 64.096 254.753 64.096ZM254.921 63.16C255.281 63.16 255.597 63.072 255.869 62.896C256.141 62.712 256.353 62.46 256.505 62.14C256.657 61.82 256.733 61.452 256.733 61.036C256.733 60.62 256.657 60.252 256.505 59.932C256.353 59.612 256.141 59.364 255.869 59.188C255.597 59.004 255.281 58.912 254.921 58.912C254.561 58.912 254.241 59.004 253.961 59.188C253.689 59.364 253.473 59.612 253.313 59.932C253.161 60.252 253.085 60.62 253.085 61.036C253.085 61.452 253.161 61.82 253.313 62.14C253.473 62.46 253.689 62.712 253.961 62.896C254.241 63.072 254.561 63.16 254.921 63.16ZM261.34 64.096C260.94 64.096 260.58 64.036 260.26 63.916C259.94 63.796 259.664 63.636 259.432 63.436C259.208 63.236 259.028 63.024 258.892 62.8L259.6 62.2C259.752 62.504 259.976 62.756 260.272 62.956C260.576 63.148 260.936 63.244 261.352 63.244C261.728 63.244 262.028 63.164 262.252 63.004C262.476 62.844 262.588 62.628 262.588 62.356C262.588 62.132 262.52 61.956 262.384 61.828C262.248 61.7 262.068 61.596 261.844 61.516C261.62 61.436 261.376 61.364 261.112 61.3C260.888 61.244 260.66 61.176 260.428 61.096C260.204 61.016 260 60.916 259.816 60.796C259.632 60.676 259.484 60.52 259.372 60.328C259.26 60.136 259.204 59.9 259.204 59.62C259.204 59.132 259.392 58.74 259.768 58.444C260.152 58.14 260.652 57.988 261.268 57.988C261.716 57.988 262.124 58.084 262.492 58.276C262.868 58.46 263.16 58.74 263.368 59.116L262.72 59.596C262.56 59.316 262.348 59.116 262.084 58.996C261.828 58.868 261.544 58.804 261.232 58.804C260.92 58.804 260.66 58.868 260.452 58.996C260.244 59.124 260.14 59.3 260.14 59.524C260.14 59.692 260.188 59.828 260.284 59.932C260.38 60.036 260.52 60.124 260.704 60.196C260.896 60.268 261.128 60.336 261.4 60.4C261.648 60.456 261.9 60.524 262.156 60.604C262.412 60.684 262.648 60.788 262.864 60.916C263.08 61.044 263.252 61.216 263.38 61.432C263.516 61.64 263.584 61.912 263.584 62.248C263.584 62.616 263.492 62.94 263.308 63.22C263.124 63.5 262.864 63.716 262.528 63.868C262.192 64.02 261.796 64.096 261.34 64.096Z" fill="#52657B"/>
<path d="M345.5 37C347.157 37 348.5 35.6569 348.5 34C348.5 32.3431 347.157 31 345.5 31C343.843 31 342.5 32.3431 342.5 34C342.5 35.6569 343.843 37 345.5 37Z" stroke="#52657B" stroke-width="1.8" stroke-linecap="round" stroke-linejoin="round"/>
<path d="M345.5 25V27.2" stroke="#52657B" stroke-width="1.8" stroke-linecap="round" stroke-linejoin="round"/>
<path d="M345.5 40.8V43" stroke="#52657B" stroke-width="1.8" stroke-linecap="round" stroke-linejoin="round"/>
<path d="M336.5 34H338.7" stroke="#07315F" stroke-width="1.8" stroke-linecap="round" stroke-linejoin="round"/>
<path d="M352.3 34H354.5" stroke="#07315F" stroke-width="1.8" stroke-linecap="round" stroke-linejoin="round"/>
<path d="M339.1 27.6L340.7 29.2" stroke="#07315F" stroke-width="1.8" stroke-linecap="round" stroke-linejoin="round"/>
<path d="M350.3 38.8L351.9 40.4" stroke="#07315F" stroke-width="1.8" stroke-linecap="round" stroke-linejoin="round"/>
<path d="M351.9 27.6L350.3 29.2" stroke="#07315F" stroke-width="1.8" stroke-linecap="round" stroke-linejoin="round"/>
<path d="M340.7 38.8L339.1 40.4" stroke="#07315F" stroke-width="1.8" stroke-linecap="round" stroke-linejoin="round"/>
<path d="M331.948 64V55.636H333.508L336.136 62.248H335.944L338.572 55.636H340.12V64H339.064V56.86L339.148 56.872L336.556 63.292H335.524L332.92 56.872L333.004 56.86V64H331.948ZM344.534 64.096C343.982 64.096 343.486 63.968 343.046 63.712C342.614 63.448 342.274 63.084 342.026 62.62C341.778 62.156 341.654 61.628 341.654 61.036C341.654 60.444 341.774 59.92 342.014 59.464C342.262 59 342.602 58.64 343.034 58.384C343.474 58.12 343.974 57.988 344.534 57.988C345.094 57.988 345.586 58.12 346.01 58.384C346.442 58.64 346.782 59 347.03 59.464C347.278 59.92 347.402 60.444 347.402 61.036C347.402 61.628 347.278 62.156 347.03 62.62C346.782 63.076 346.442 63.436 346.01 63.7C345.578 63.964 345.086 64.096 344.534 64.096ZM344.534 63.196C344.91 63.196 345.234 63.108 345.506 62.932C345.786 62.748 346.002 62.496 346.154 62.176C346.306 61.848 346.382 61.468 346.382 61.036C346.382 60.596 346.306 60.216 346.154 59.896C346.002 59.568 345.786 59.316 345.506 59.14C345.234 58.964 344.91 58.876 344.534 58.876C344.15 58.876 343.818 58.968 343.538 59.152C343.258 59.328 343.042 59.576 342.89 59.896C342.738 60.216 342.662 60.596 342.662 61.036C342.662 61.468 342.738 61.848 342.89 62.176C343.042 62.496 343.258 62.748 343.538 62.932C343.818 63.108 344.15 63.196 344.534 63.196ZM348.856 64V58.084H349.876V59.668L349.612 59.728C349.668 59.376 349.8 59.072 350.008 58.816C350.224 58.552 350.472 58.348 350.752 58.204C351.04 58.06 351.32 57.988 351.592 57.988C351.776 57.988 351.952 58.008 352.12 58.048C352.288 58.088 352.46 58.156 352.636 58.252L352.132 59.164C352.036 59.116 351.92 59.076 351.784 59.044C351.656 59.012 351.532 58.996 351.412 58.996C351.22 58.996 351.028 59.032 350.836 59.104C350.652 59.176 350.484 59.288 350.332 59.44C350.18 59.592 350.064 59.796 349.984 60.052C349.952 60.164 349.924 60.312 349.9 60.496C349.884 60.672 349.876 60.916 349.876 61.228V64H348.856ZM355.899 64.096C355.435 64.096 355.027 64.02 354.675 63.868C354.331 63.708 354.043 63.488 353.811 63.208C353.587 62.928 353.415 62.608 353.295 62.248C353.183 61.88 353.127 61.492 353.127 61.084C353.127 60.676 353.183 60.288 353.295 59.92C353.407 59.544 353.571 59.212 353.787 58.924C354.011 58.636 354.291 58.408 354.627 58.24C354.963 58.072 355.355 57.988 355.803 57.988C356.259 57.988 356.651 58.068 356.979 58.228C357.315 58.38 357.587 58.592 357.795 58.864C358.011 59.136 358.171 59.44 358.275 59.776C358.379 60.112 358.431 60.46 358.431 60.82C358.431 60.852 358.427 60.928 358.419 61.048C358.419 61.16 358.411 61.26 358.395 61.348H354.135C354.159 61.924 354.327 62.372 354.639 62.692C354.951 63.012 355.375 63.172 355.911 63.172C356.255 63.172 356.555 63.116 356.811 63.004C357.067 62.892 357.307 62.712 357.531 62.464L358.239 63.088C358.023 63.32 357.795 63.512 357.555 63.664C357.315 63.808 357.059 63.916 356.787 63.988C356.523 64.06 356.227 64.096 355.899 64.096ZM357.423 60.832C357.439 60.768 357.447 60.704 357.447 60.64C357.455 60.576 357.459 60.512 357.459 60.448C357.459 60.256 357.423 60.064 357.351 59.872C357.287 59.68 357.187 59.508 357.051 59.356C356.923 59.196 356.755 59.072 356.547 58.984C356.347 58.888 356.107 58.84 355.827 58.84C355.483 58.84 355.187 58.92 354.939 59.08C354.691 59.24 354.499 59.452 354.363 59.716C354.227 59.98 354.147 60.272 354.123 60.592H357.759L357.423 60.832Z" fill="#52657B"/>
</svg>
